PathFileType	4	(X/Y/Z)	\\147.46.242.158\로컬 디스크 (e)\MOCAP Data\Iguana Capture\iguana\Project 2\Capture day 7\Session 2\Take01.trc
DataRate	CameraRate	NumFrames	NumMarkers	Units	OrigDataRate	OrigDataStartFrame	OrigNumFrames
120.0	120.0	9	23	mm	120.0	183	1930
Frame#	Time	ana:head1			ana:head2			ana:bone1			ana:bone2			ana:bone3			ana:tail1			ana:tail2			ana:tail3			ana:tail4			ana:Rforefoot1			ana:Rforefoot2			ana:Rforefoot3			ana:Lforefoot1			ana:Lforefoot2			ana:Lforefoot3			ana:RhindLeg1			ana:RhindLeg2			ana:RhindLeg3			ana:RhindLeg4			ana:LhindLeg1			ana:LhindLeg2			ana:LhindLeg3			ana:LhindLeg4			
		X1	Y1	Z1	X2	Y2	Z2	X3	Y3	Z3	X4	Y4	Z4	X5	Y5	Z5	X6	Y6	Z6	X7	Y7	Z7	X8	Y8	Z8	X9	Y9	Z9	X10	Y10	Z10	X11	Y11	Z11	X12	Y12	Z12	X13	Y13	Z13	X14	Y14	Z14	X15	Y15	Z15	X16	Y16	Z16	X17	Y17	Z17	X18	Y18	Z18	X19	Y19	Z19	X20	Y20	Z20	X21	Y21	Z21	X22	Y22	Z22	X23	Y23	Z23	

1082	9.008	-294.35733	-449.08914	51.83057	-283.97305	-449.37579	51.70239	-263.00403	-446.04874	43.19913	-236.37279	-439.47760	42.23032	-203.22551	-441.15488	37.28440	-170.81554	-449.61502	30.20633	-135.55000	-452.78198	21.40525	-89.69050	-452.43793	11.46739	-51.39141	-455.45035	7.69096	-276.53879	-439.07104	29.19874	-285.42206	-430.38101	22.84546	-299.62671	-434.95758	9.89348	-260.11508	-460.80444	26.11149	-246.66235	-466.75885	22.49267	-243.79344	-463.93869	7.17570	-197.88162	-432.95441	30.00717	-185.58632	-418.85757	21.73543	-169.41589	-421.78021	12.42734	-182.25710	-414.18665	12.38902	-205.89435	-450.82358	31.71147	-222.24094	-460.38504	30.87616	-219.59892	-474.89417	11.31055	-232.90027	-476.54910	9.27573	
1083	9.017	-296.27017	-449.29764	51.47565	-285.71887	-449.41339	51.49091	-264.93851	-446.32339	43.08749	-238.35170	-439.66876	42.10999	-205.09557	-441.35632	37.34789	-172.86859	-449.90268	30.78088	-137.25513	-453.29175	21.70081	-91.54810	-453.09589	11.51690	-53.18954	-455.80145	7.36022	-277.94736	-439.08731	28.23504	-286.29724	-430.96921	20.42518	-299.72723	-434.82520	6.29471	-261.53882	-460.63574	25.58865	-249.10988	-466.72321	23.07358	-244.61679	-464.04605	7.37683	-199.65494	-433.20081	30.21416	-187.20255	-419.53522	22.38104	-170.28264	-422.14743	13.05822	-179.00075	-418.66595	7.41864	-207.82471	-450.91116	31.65620	-224.20456	-460.92801	30.01517	-220.96005	-474.14276	10.07420	-232.64063	-475.29449	6.33044	
1084	9.025	-302.52148	-449.45218	55.44217	-291.37198	-449.74567	54.56751	-266.91061	-446.36746	42.53422	-240.24521	-439.70160	41.89791	-207.12714	-441.51862	37.52491	-174.67880	-450.19781	30.81941	-139.24962	-453.74841	22.06815	-93.45464	-453.84293	11.62232	-55.21619	-456.29718	7.42211	-278.81827	-438.81876	27.00984	-286.73065	-429.89658	19.39282	-299.83688	-434.33954	5.26583	-263.01636	-460.43704	25.18423	-251.73946	-466.60199	23.68755	-245.57091	-464.19031	7.60304	-201.37531	-433.35773	30.32068	-188.71994	-420.13000	23.19218	-170.97838	-422.63422	13.76312	-179.28212	-418.90533	7.62851	-209.69206	-451.23364	31.11717	-225.08647	-460.99219	28.15104	-220.54141	-473.09082	7.69327	-232.71156	-475.40134	5.10980	
1085	9.033	-304.28424	-449.50467	54.49900	-293.52908	-449.62851	54.22762	-268.94424	-446.49786	42.42096	-242.15982	-439.94659	41.63666	-209.04456	-441.64905	37.49246	-176.63010	-450.43887	31.03127	-140.56711	-453.94205	21.76799	-95.40932	-454.33179	11.61916	-57.10213	-456.85327	7.79334	-280.68610	-438.79404	26.71807	-290.48709	-429.70328	21.53448	-299.80972	-433.99469	4.44307	-264.62500	-460.29059	24.86393	-254.08844	-466.39981	23.96252	-246.65977	-464.38138	7.85386	-203.23534	-433.50723	30.18830	-190.14000	-420.30942	22.93001	-172.20015	-422.82733	14.69923	-179.65991	-419.11069	7.91630	-211.70094	-451.54514	30.78021	-226.35312	-461.95572	27.10259	-220.44180	-473.39697	7.47570	-232.57210	-475.77591	5.21828	
1086	9.042	-306.16156	-449.19968	54.14421	-295.82440	-449.32916	54.52382	-270.78967	-446.67935	42.19650	-244.16498	-440.33548	41.43263	-210.98465	-441.76422	37.43570	-178.53436	-450.56924	31.04974	-143.09932	-454.77173	22.17451	-97.21255	-454.92282	11.86120	-58.84877	-457.28635	7.79048	-282.40549	-438.51114	26.92487	-291.99728	-428.24133	18.49585	-299.81281	-433.87726	4.31331	-266.44193	-460.27847	24.59344	-255.69421	-466.12137	23.52644	-247.88741	-464.62921	8.12886	-207.03951	-433.66077	31.98904	-191.65761	-420.84238	23.00263	-173.35440	-422.96027	15.36149	-180.12378	-419.27448	8.27421	-213.42285	-451.92581	30.60847	-228.13951	-463.75400	27.03627	-219.79216	-472.83887	5.99726	-232.10770	-475.66263	4.38634	
1087	9.050	-305.25717	-449.52698	51.28156	-297.59851	-449.10358	54.38470	-273.65146	-447.51987	43.46793	-245.97914	-440.85962	41.30708	-212.61491	-442.29742	37.08169	-180.34898	-450.87515	30.77038	-144.83623	-455.02112	22.23539	-99.04951	-455.50308	11.56033	-60.76703	-457.92145	7.60368	-284.01587	-438.28992	26.77816	-289.06104	-427.33612	19.52339	-299.81839	-433.84818	4.29118	-268.48679	-460.41068	24.38184	-256.70044	-465.75821	22.48541	-249.25778	-464.94373	8.42759	-207.16309	-434.49866	29.94377	-193.06018	-421.24747	23.38229	-174.68742	-423.25443	16.30810	-180.64503	-419.41055	8.67889	-215.06908	-452.57007	30.54459	-229.16444	-464.79648	26.32929	-219.62564	-472.79706	5.30944	-232.19943	-475.90021	4.32619	
1088	9.058	-307.23715	-449.34686	51.48744	-299.45096	-449.00412	54.39452	-275.67105	-447.81073	43.49135	-247.92616	-441.62106	41.54544	-214.71349	-442.94586	37.22078	-182.08936	-450.95432	30.84073	-146.58804	-455.10599	21.93691	-100.83321	-455.79834	11.41360	-62.49894	-458.39780	7.30190	-285.21658	-438.16437	26.40541	-289.80743	-426.56436	19.87197	-300.27734	-434.10907	4.95603	-270.80170	-460.70779	24.07483	-258.75851	-465.82849	22.53097	-250.77489	-465.33484	8.74959	-209.20473	-435.02115	30.11538	-194.83118	-422.01392	24.35773	-175.95277	-423.43860	16.74200	-181.19498	-419.53278	9.10694	-216.72375	-453.14578	30.45450	-229.48518	-465.28442	25.08357	-219.69905	-472.94351	5.49061	-232.20551	-475.92657	4.27894	
1089	9.067	-308.20303	-448.61658	50.35757	-297.98544	-449.00357	50.52344	-277.65790	-448.12399	43.41070	-249.68828	-442.38315	41.77364	-216.24658	-443.38297	37.53234	-183.66133	-451.12424	30.72271	-148.44705	-455.32855	21.59869	-102.67184	-455.95319	11.09604	-64.32530	-459.03149	7.45639	-287.05063	-438.23901	26.71058	-290.22083	-426.33420	19.91890	-300.34131	-434.06491	5.04734	-272.86542	-460.88663	24.06228	-260.74933	-465.93546	22.73226	-252.44272	-465.81247	9.09442	-212.59360	-435.35059	31.99871	-196.50906	-422.62244	24.73725	-177.28505	-423.86911	17.51675	-181.74493	-419.65503	9.53499	-218.36876	-453.86774	30.39273	-231.46443	-467.68533	26.28849	-219.51715	-472.82355	5.13275	-232.23627	-476.07980	4.18669	
1090	9.075	-310.28275	-448.48294	50.56209	-299.82721	-448.75900	50.39779	-278.71204	-447.86206	42.37542	-251.54555	-443.18469	41.94264	-218.28500	-443.95715	37.84376	-185.48094	-451.29901	30.67040	-150.23038	-455.45044	21.44886	-104.39174	-456.33176	10.77950	-66.10632	-459.23566	7.28016	-288.47205	-438.30994	26.79301	-291.08945	-426.08444	20.08117	-302.10666	-433.49161	7.01227	-274.96188	-461.28876	24.36998	-264.00003	-467.02036	24.67730	-254.26527	-466.38654	9.46164	-212.98123	-436.32889	30.37074	-198.98503	-424.54092	25.07699	-178.78558	-424.04727	18.42100	-182.26619	-419.79111	9.93966	-219.69476	-454.52292	30.66535	-231.50978	-468.03180	24.88988	-219.58716	-473.07843	5.11988	-232.11473	-476.09048	4.06332	
